# xmcd CD database file
#
# Track frame offsets:
#	150
#	20682
#	39057
#	57175
#	75760
#	95202
#	114295
#	132090
#	148647
#	164310
#	182937
#	197930
#
# Disc length: 2910 seconds
#
# Revision: 4
# Processed by: cddbd v1.4PL0 Copyright (c) Steve Scherf et al.
# Submitted via: CDex 1.50Beta7
#
DISCID=990b5c0c
DTITLE=Marla Glen - Our World
DYEAR=1997
DGENRE=Soul
TTITLE0=Hot Love
TTITLE1=Real Love
TTITLE2=Myriam
TTITLE3=Promises
TTITLE4=Time is Faster
TTITLE5=We Need Each Other
TTITLE6=Our World
TTITLE7=Center of a Star
TTITLE8=Movin'
TTITLE9=La Mamma
TTITLE10=It's a Man's Man's Man's World
TTITLE11=Talk About Love
EXTD=YEAR: 1997
EXTT0=
EXTT1=
EXTT2=
EXTT3=
EXTT4=
EXTT5=
EXTT6=
EXTT7=
EXTT8=
EXTT9=
EXTT10=
EXTT11=
PLAYORDER=
